# xmcd
#
# Track frame offsets: 
#        150
#        13902
#        27727
#        42426
#        57877
#        72509
#        92009
#        103157
#        119070
#        138277
#        150269
#
# Disc length: 2159 seconds
#
# Revision: 0
# Processed by: cddbd v1.5.2PL0 Copyright (c) Steve Scherf et al.
# Submitted via: ExactAudioCopy v0.99pb3
#
DISCID=9b086d0b
DTITLE=Kingen - Ride With Me
DYEAR=2008
DGENRE=Blues
TTITLE0=Mary-Ann
TTITLE1=Ride With Me
TTITLE2=She`s Mine
TTITLE3=31-00-54
TTITLE4=Be-bop Street
TTITLE5=I Don´t Wanna Lose You
TTITLE6=Why?
TTITLE7=Misery
TTITLE8=Someone New
TTITLE9=Basics
TTITLE10=Tu-ber-cu-lucas and the Sinus Blues
EXTD=
EXTT0=
EXTT1=
EXTT2=
EXTT3=
EXTT4=
EXTT5=
EXTT6=
EXTT7=
EXTT8=
EXTT9=
EXTT10=
PLAYORDER=
